<?xml version="1.0" standalone="no"?>
<!DOCTYPE svg PUBLIC "-//W3C//DTD SVG 20010904//EN"
 "http://www.w3.org/TR/2001/REC-SVG-20010904/DTD/svg10.dtd">
<svg version="1.0" xmlns="http://www.w3.org/2000/svg"
 width="150.000000pt" height="150.000000pt" viewBox="0 0 150.000000 150.000000"
 preserveAspectRatio="xMidYMid meet">

<g transform="translate(0.000000,150.000000) scale(0.100000,-0.100000)"
fill="#000000" stroke="none">
<path d="M0 750 l0 -750 750 0 750 0 0 750 0 750 -750 0 -750 0 0 -750z m244
99 l36 -21 0 -76 c0 -77 0 -77 -35 -99 -45 -30 -111 -30 -160 -2 l-36 21 3 81
c3 78 4 81 33 98 42 25 116 24 159 -2z m853 -7 c11 -14 13 -14 18 1 4 8 14 18
22 21 20 8 53 -2 53 -15 0 -6 -9 -8 -19 -4 -29 9 -36 -14 -8 -24 33 -13 42
-28 26 -47 -14 -17 -76 -16 -71 1 2 6 14 9 27 7 35 -5 31 11 -5 25 -21 8 -30
8 -30 0 0 -20 -33 -47 -60 -47 -31 0 -50 16 -50 45 -1 18 -1 18 -11 3 -5 -10
-21 -18 -34 -18 -16 0 -25 -6 -25 -15 0 -8 -4 -15 -10 -15 -5 0 -10 23 -10 50
l0 50 35 0 c22 0 38 -6 41 -15 5 -12 10 -12 32 5 27 22 58 19 79 -8z m331 0
c16 -22 15 -42 -5 -64 -32 -36 -93 -15 -93 32 0 53 64 74 98 32z m-1068 1 c0
-15 1 -15 18 0 27 25 50 22 27 -3 -17 -18 -17 -21 -1 -46 21 -31 13 -44 -12
-21 -23 21 -32 21 -32 1 0 -9 -6 -14 -12 -12 -7 3 -14 25 -16 51 -2 37 0 47
12 47 9 0 16 -7 16 -17z m101 -10 l11 -28 10 28 c12 34 24 34 41 1 l14 -27 7
27 c6 24 10 26 62 26 59 0 77 -16 56 -51 -7 -11 -8 -20 -2 -24 15 -9 12 -25
-4 -25 -8 0 -16 7 -20 15 -7 20 -26 19 -26 -1 0 -9 -6 -14 -12 -11 -8 2 -13
21 -13 45 0 53 -8 53 -25 1 -17 -51 -27 -57 -42 -25 -14 33 -24 33 -32 1 -9
-37 -22 -30 -40 22 -19 55 -19 53 -6 53 6 0 15 -12 21 -27z m340 1 c13 -36
-11 -69 -54 -72 l-37 -3 0 51 0 51 41 -3 c32 -2 44 -8 50 -24z m67 19 c-32 -5
-38 -33 -8 -33 11 0 20 -4 20 -10 0 -5 -9 -10 -20 -10 -11 0 -20 -4 -20 -10 0
-5 14 -10 32 -10 23 0 29 -3 21 -11 -6 -6 -25 -9 -43 -7 -32 3 -33 4 -34 51
l-1 47 40 -1 c30 -2 33 -3 13 -6z m362 -43 c0 -27 -4 -50 -10 -50 -5 0 -10 23
-10 50 0 28 5 50 10 50 6 0 10 -22 10 -50z m88 43 c-12 -3 -18 -17 -20 -45 -4
-59 -28 -63 -28 -5 0 35 -4 47 -17 50 -10 3 5 5 32 5 28 0 42 -2 33 -5z m-904
-129 c19 -18 20 -38 6 -65 -8 -14 -21 -19 -50 -19 l-40 0 0 43 c0 24 3 47 7
50 12 13 62 7 77 -9z m106 6 c0 -5 -14 -10 -31 -10 -31 0 -38 -23 -8 -26 30
-3 33 -6 11 -12 -33 -10 -32 -26 3 -33 27 -6 26 -7 -12 -8 l-43 -1 0 50 0 50
40 0 c22 0 40 -4 40 -10z m116 -15 c1 -11 4 -28 8 -37 12 -27 -2 -38 -45 -38
l-39 0 0 51 0 50 38 -3 c29 -2 37 -7 38 -23z m94 15 c0 -5 -11 -10 -25 -10
-24 0 -37 -19 -15 -21 10 -2 24 -5 38 -9 4 -1 -3 -5 -16 -8 -33 -10 -32 -26 3
-33 27 -6 26 -7 -12 -8 l-43 -1 0 50 0 50 35 0 c19 0 35 -4 35 -10z m96 -15
c1 -11 4 -28 8 -37 12 -27 -2 -38 -45 -38 l-39 0 0 51 0 50 38 -3 c29 -2 37
-7 38 -23z m44 -25 c0 -27 -4 -50 -10 -50 -5 0 -10 23 -10 50 0 28 5 50 10 50
6 0 10 -22 10 -50z m91 40 c22 -12 26 -59 7 -78 -7 -7 -27 -12 -45 -12 -33 0
-33 0 -33 50 0 47 2 50 26 50 14 0 34 -5 45 -10z m97 -35 c12 -25 22 -47 22
-48 0 -1 -22 -2 -49 -3 l-48 0 20 48 c11 26 23 48 26 48 4 0 17 -20 29 -45z
m104 30 c-2 -5 -12 -9 -22 -7 -29 5 -24 -17 5 -24 29 -7 35 -48 9 -58 -20 -7
-64 3 -64 15 0 5 11 7 24 3 35 -9 41 12 6 25 -29 10 -40 37 -23 55 11 10 68 3
65 -9z"/>
<path d="M155 850 c-81 -8 -95 -23 -95 -100 0 -62 2 -67 29 -83 29 -17 104
-23 135 -11 13 5 16 23 16 93 0 101 -7 109 -85 101z m-5 -67 c0 -14 3 -14 22
3 18 15 20 15 9 2 -11 -15 -10 -23 9 -53 21 -34 21 -35 2 -35 -12 0 -23 9 -27
23 l-8 22 -4 -22 c-2 -13 -11 -23 -19 -23 -10 0 -14 13 -14 50 0 38 4 50 15
50 8 0 15 -7 15 -17z"/>
<path d="M250 756 c0 -44 4 -76 10 -76 6 0 10 30 10 69 0 39 -4 73 -10 76 -6
4 -10 -22 -10 -69z"/>
<path d="M930 830 c0 -11 6 -20 14 -20 21 0 31 21 15 31 -22 14 -29 11 -29
-11z"/>
<path d="M1029 834 c-16 -20 0 -49 27 -49 35 0 28 64 -7 65 -4 0 -12 -7 -20
-16z"/>
<path d="M1363 835 c-14 -11 -16 -18 -7 -32 17 -28 48 -23 52 8 4 32 -18 43
-45 24z"/>
<path d="M610 830 c0 -19 20 -27 33 -13 8 7 -11 33 -24 33 -5 0 -9 -9 -9 -20z"/>
<path d="M740 809 c0 -24 4 -30 18 -27 10 2 18 14 20 31 3 22 -1 27 -17 27
-17 0 -21 -6 -21 -31z"/>
<path d="M360 691 c0 -25 4 -31 21 -31 16 0 20 5 17 27 -2 17 -10 29 -20 31
-14 3 -18 -3 -18 -27z"/>
<path d="M580 710 c0 -5 9 -10 20 -10 11 0 20 5 20 10 0 6 -9 10 -20 10 -11 0
-20 -4 -20 -10z"/>
<path d="M582 668 c7 -19 38 -22 38 -4 0 10 -9 16 -21 16 -12 0 -19 -5 -17
-12z"/>
<path d="M770 710 c0 -5 9 -10 21 -10 11 0 17 5 14 10 -3 6 -13 10 -21 10 -8
0 -14 -4 -14 -10z"/>
<path d="M772 668 c7 -19 38 -22 38 -4 0 10 -9 16 -21 16 -12 0 -19 -5 -17
-12z"/>
<path d="M910 690 c0 -23 4 -30 20 -30 25 0 36 25 20 45 -21 25 -40 18 -40
-15z"/>
<path d="M1026 691 c-4 -7 -5 -15 -2 -18 9 -9 19 4 14 18 -4 11 -6 11 -12 0z"/>
</g>
</svg>
